<?xml version="1.0" encoding="UTF-8" standalone="no"?>
<!-- Created with Inkscape (http://www.inkscape.org/) -->

<svg
   xmlns:dc="http://purl.org/dc/elements/1.1/"
   xmlns:cc="http://creativecommons.org/ns#"
   xmlns:rdf="http://www.w3.org/1999/02/22-rdf-syntax-ns#"
   xmlns:svg="http://www.w3.org/2000/svg"
   xmlns="http://www.w3.org/2000/svg"
   xmlns:sodipodi="http://sodipodi.sourceforge.net/DTD/sodipodi-0.dtd"
   xmlns:inkscape="http://www.inkscape.org/namespaces/inkscape"
   width="210mm"
   height="297mm"
   viewBox="0 0 210 297"
   version="1.1"
   id="svg8"
   inkscape:version="0.92.5 (2060ec1f9f, 2020-04-08)"
   sodipodi:docname="flowers.svg">
  <defs
     id="defs2" />
  <sodipodi:namedview
     id="base"
     pagecolor="#ffffff"
     bordercolor="#666666"
     borderopacity="1.0"
     inkscape:pageopacity="0.0"
     inkscape:pageshadow="2"
     inkscape:zoom="0.7"
     inkscape:cx="683.38359"
     inkscape:cy="604.69345"
     inkscape:document-units="mm"
     inkscape:current-layer="layer1"
     showgrid="false"
     inkscape:window-width="2508"
     inkscape:window-height="1376"
     inkscape:window-x="52"
     inkscape:window-y="27"
     inkscape:window-maximized="1" />
  <metadata
     id="metadata5">
    <rdf:RDF>
      <cc:Work
         rdf:about="">
        <dc:format>image/svg+xml</dc:format>
        <dc:type
           rdf:resource="http://purl.org/dc/dcmitype/StillImage" />
        <dc:title></dc:title>
      </cc:Work>
    </rdf:RDF>
  </metadata>
  <g
     inkscape:label="Layer 1"
     inkscape:groupmode="layer"
     id="layer1">
    <path
       style="fill:#eeefeb;fill-opacity:1;stroke:#000000;stroke-width:0;stroke-linecap:butt;stroke-linejoin:miter;stroke-miterlimit:4;stroke-dasharray:none;stroke-opacity:1"
       d="m 149.17994,192.76907 c -4.82185,-5.16459 -9.16892,-10.92267 -13.49711,-16.70435 -4.03956,-10.50243 -5.36506,-21.90954 -8.01809,-32.87415 l -2.27179,-3.0736 -1.46998,3.0736 5.21175,24.5888 -17.90705,-27.12786 -1.73726,-31.13699 -2.80633,-0.26728 -0.4009,21.64893 c -4.35764,-8.76311 -8.153788,-17.71341 -11.759827,-26.72707 1.206974,-4.260188 4.921693,-11.570464 1.069074,-13.630771 l -2.672685,7.750815 -4.142646,-9.621702 -3.875389,1.069078 c 4.619863,10.69083 8.643192,21.90369 14.165199,31.80519 l -11.759794,-5.34542 -1.603598,2.40544 15.282166,11.18176 14.31585,23.76526 C 103.4493,148.75874 92.248315,142.2322 81.142026,135.45314 l -1.55915,2.69308 c 11.266388,7.62593 22.911884,15.0106 38.269984,20.03274 l 8.69346,12.09523 -17.24517,-7.74851 c -1.1244,0.16054 -2.19761,0.25283 -3.68526,0.8977 l 1.60639,2.59858 c 7.39156,4.24618 14.91908,8.86981 23.15105,9.63839 6.87031,8.92052 16.13548,22.08199 18.80661,17.10872 z"
       id="path3724"
       inkscape:connector-curvature="0"
       sodipodi:nodetypes="ccccccccccccccccccccccccccccc" />
    <path
       style="fill:#b5dfce;fill-opacity:1;stroke:#000000;stroke-width:0;stroke-linecap:butt;stroke-linejoin:miter;stroke-miterlimit:4;stroke-dasharray:none;stroke-opacity:1"
       d="m 73.204526,45.683646 c 2.850999,4.204343 5.476151,8.747457 8.079243,13.32366 0.531734,-5.07559 -0.856379,-18.635222 4.582942,-19.18229 4.749653,3.836834 8.945389,12.97161 9.402106,18.662575 0.36723,8.404654 0.530747,19.321961 -1.322911,24.993673 -2.615015,5.9525 -8.454892,6.452061 -14.410279,6.756326 C 72.586154,90.27563 66.503913,79.207523 61.06204,71.95299 58.5611,65.351009 57.66101,60.483282 56.620821,55.463781 c 0.69985,-0.738481 1.631081,-1.419116 2.834823,-2.031624 4.642377,2.491924 7.904751,6.36385 11.764507,9.638395 -0.637702,-5.491332 -0.964759,-11.396857 -1.228423,-17.386906 0.882609,-0.06278 1.610479,-0.177129 3.212798,0 z"
       id="path3726"
       inkscape:connector-curvature="0"
       sodipodi:nodetypes="cccccccccccc" />
    <path
       style="fill:#b5dfce;fill-opacity:1;stroke:#000000;stroke-width:0;stroke-linecap:butt;stroke-linejoin:miter;stroke-miterlimit:4;stroke-dasharray:none;stroke-opacity:1"
       d="m 53.880495,107.05757 5.338913,10.3944 -7.890253,-3.87428 -3.165552,2.36237 7.843007,9.11873 -8.646205,-1.37018 -3.118303,3.44905 14.410341,13.37091 11.622767,2.45684 c 7.655851,-1.26265 11.658914,-6.72552 11.811757,-9.07142 0.2336,-3.66899 0.777942,-10.61595 -3.685268,-14.69387 l -13.040179,-12.1898 -6.567334,-2.55135 z"
       id="path3728"
       inkscape:connector-curvature="0"
       sodipodi:nodetypes="cccccccccccccc" />
    <path
       style="fill:#6e94bf;fill-opacity:1;stroke:#000000;stroke-width:0;stroke-linecap:butt;stroke-linejoin:miter;stroke-miterlimit:4;stroke-dasharray:none;stroke-opacity:1"
       d="m 57.038868,120.84013 c 5.319094,6.95594 18.223911,14.16784 20.112032,13.22987 1.404096,-0.95551 -4.042869,-11.18157 -14.03165,-21.81596 -0.503835,-0.15504 -0.620054,0.0221 -0.501129,0.40091 5.528108,6.3977 13.609198,19.09052 12.929164,19.77802 -0.691427,0.67807 -12.71916,-6.0971 -18.17433,-12.1942 -0.422746,-0.072 -0.621768,0.0517 -0.334087,0.60136 z"
       id="path3730"
       inkscape:connector-curvature="0"
       sodipodi:nodetypes="ccccccc" />
    <path
       style="fill:#6e94bf;fill-opacity:1;stroke:#000000;stroke-width:0;stroke-linecap:butt;stroke-linejoin:miter;stroke-miterlimit:4;stroke-dasharray:none;stroke-opacity:1"
       d="m 60.212694,135.00544 c -1.339944,-0.61597 -0.968989,0.76721 -0.801807,0.90204 3.145743,2.37598 10.457056,5.14863 17.472744,-0.83522 0.281501,-0.3079 -0.345615,-0.75697 -0.801809,-0.46772 -3.315978,2.6115 -8.726058,4.24654 -15.869128,0.4009 z"
       id="path3732"
       inkscape:connector-curvature="0"
       sodipodi:nodetypes="ccccc" />
    <path
       style="fill:#6e94bf;fill-opacity:1;stroke:#000000;stroke-width:0;stroke-linecap:butt;stroke-linejoin:miter;stroke-miterlimit:4;stroke-dasharray:none;stroke-opacity:1"
       d="m 79.18883,85.794294 c -7.833749,-7.07923 -14.524453,-14.82302 -18.541823,-24.121075 -0.552935,-1.396624 0.872511,-1.17945 1.269532,-0.400905 3.909681,8.105544 10.298454,16.093035 17.940467,24.020849 0.778117,0.721682 0.467066,1.505893 -0.668176,0.501131 z"
       id="path3734"
       inkscape:connector-curvature="0"
       sodipodi:nodetypes="ccccc" />
    <path
       style="fill:#6e94bf;fill-opacity:1;stroke:#000000;stroke-width:0;stroke-linecap:butt;stroke-linejoin:miter;stroke-miterlimit:4;stroke-dasharray:none;stroke-opacity:1"
       d="m 72.841179,49.245186 c 3.285408,13.366325 11.746931,38.665646 13.062782,38.687263 0.871824,-0.984721 5.633057,-3.111773 4.142656,-35.780707 -0.0739,-1.062637 -1.224721,-1.114314 -1.169301,0.133635 0.596874,21.834265 -0.560827,32.58346 -2.873135,34.076864 -4.460054,-10.46144 -8.59014,-24.807447 -12.194151,-37.618185 -0.185208,-0.673582 -1.268214,-0.675692 -0.968851,0.50113 z"
       id="path3736"
       inkscape:connector-curvature="0"
       sodipodi:nodetypes="ccccccc" />
    <path
       style="fill:#b5dfce;fill-opacity:1;stroke:#000000;stroke-width:0;stroke-linecap:butt;stroke-linejoin:miter;stroke-miterlimit:4;stroke-dasharray:none;stroke-opacity:1"
       d="m 138.89006,184.56723 -1.11919,-1.45327 c -0.19784,-0.34457 0.13218,-0.99186 0.63477,-0.55125 l 1.13589,1.46998 c 0.56204,0.96033 -0.2517,0.99672 -0.65147,0.53454 z"
       id="path3740"
       inkscape:connector-curvature="0"
       sodipodi:nodetypes="ccccc" />
    <path
       style="fill:#b5dfce;fill-opacity:1;stroke:#000000;stroke-width:0;stroke-linecap:butt;stroke-linejoin:miter;stroke-miterlimit:4;stroke-dasharray:none;stroke-opacity:1"
       d="m 134.56572,178.64222 -1.23596,-1.73411 c -0.23105,-0.41814 -0.0207,-1.27613 0.504,-0.76725 l 1.25369,1.75366 c 0.6537,1.16426 -0.0884,1.29466 -0.52173,0.7477 z"
       id="path3740-3"
       inkscape:connector-curvature="0"
       sodipodi:nodetypes="ccccc" />
    <path
       style="fill:#b5dfce;fill-opacity:1;stroke:#000000;stroke-width:0;stroke-linecap:butt;stroke-linejoin:miter;stroke-miterlimit:4;stroke-dasharray:none;stroke-opacity:1"
       d="m 146.07252,192.77999 -1.57872,-0.8868 c -0.3124,-0.2353 -0.25564,-0.93784 0.37275,-0.72959 l 1.6004,0.89557 c 0.8804,0.6519 0.14786,0.98657 -0.39443,0.72082 z"
       id="path3740-6"
       inkscape:connector-curvature="0"
       sodipodi:nodetypes="ccccc" />
    <path
       style="fill:#b5dfce;fill-opacity:1;stroke:#000000;stroke-width:0;stroke-linecap:butt;stroke-linejoin:miter;stroke-miterlimit:4;stroke-dasharray:none;stroke-opacity:1"
       d="m 131.32997,172.42521 -0.59054,-1.65947 c -0.0814,-0.38548 0.37559,-1.02672 0.6966,-0.50429 l 0.60065,1.67901 c 0.23593,1.0756 -0.4809,1.01766 -0.70671,0.48475 z"
       id="path3740-3-7"
       inkscape:connector-curvature="0"
       sodipodi:nodetypes="ccccc" />
    <path
       style="fill:#b5dfce;fill-opacity:1;stroke:#000000;stroke-width:0;stroke-linecap:butt;stroke-linejoin:miter;stroke-miterlimit:4;stroke-dasharray:none;stroke-opacity:1"
       d="m 125.46866,173.6954 -1.96397,-0.82312 c -0.41664,-0.23375 -0.68972,-1.07388 0.0243,-0.91766 l 1.98935,0.83041 c 1.16889,0.64539 0.60674,1.14709 -0.0497,0.91037 z"
       id="path3740-3-5"
       inkscape:connector-curvature="0"
       sodipodi:nodetypes="ccccc" />
    <path
       style="fill:#b5dfce;fill-opacity:1;stroke:#000000;stroke-width:0;stroke-linecap:butt;stroke-linejoin:miter;stroke-miterlimit:4;stroke-dasharray:none;stroke-opacity:1"
       d="m 125.62976,165.35592 -1.23596,-1.73411 c -0.23105,-0.41814 -0.0207,-1.27613 0.504,-0.76725 l 1.25369,1.75366 c 0.6537,1.16426 -0.0884,1.29466 -0.52173,0.7477 z"
       id="path3740-3-3"
       inkscape:connector-curvature="0"
       sodipodi:nodetypes="ccccc" />
    <path
       style="fill:#b5dfce;fill-opacity:1;stroke:#000000;stroke-width:0;stroke-linecap:butt;stroke-linejoin:miter;stroke-miterlimit:4;stroke-dasharray:none;stroke-opacity:1"
       d="m 129.75889,162.42922 -0.79899,-1.54967 c -0.14426,-0.37061 0.0544,-1.09986 0.40594,-0.63771 l 0.81075,1.56731 c 0.40917,1.0324 -0.13424,1.11084 -0.4177,0.62007 z"
       id="path3740-3-56"
       inkscape:connector-curvature="0"
       sodipodi:nodetypes="ccccc" />
    <path
       style="fill:#b5dfce;fill-opacity:1;stroke:#000000;stroke-width:0;stroke-linecap:butt;stroke-linejoin:miter;stroke-miterlimit:4;stroke-dasharray:none;stroke-opacity:1"
       d="m 120.39274,158.55572 -1.02233,-1.40367 c -0.19112,-0.33846 -0.0171,-1.03296 0.41688,-0.62105 l 1.03701,1.4195 c 0.54071,0.94241 -0.0731,1.04796 -0.43156,0.60522 z"
       id="path3740-3-2"
       inkscape:connector-curvature="0"
       sodipodi:nodetypes="ccccc" />
    <path
       style="fill:#b5dfce;fill-opacity:1;stroke:#000000;stroke-width:0;stroke-linecap:butt;stroke-linejoin:miter;stroke-miterlimit:4;stroke-dasharray:none;stroke-opacity:1"
       d="m 128.0528,151.08744 -0.42592,-1.21614 c -0.0519,-0.27895 0.36066,-0.70517 0.60851,-0.31369 l 0.4336,1.23067 c 0.1524,0.7789 -0.44886,0.69204 -0.61619,0.29916 z"
       id="path3740-3-9"
       inkscape:connector-curvature="0"
       sodipodi:nodetypes="ccccc" />
    <path
       style="fill:#b5dfce;fill-opacity:1;stroke:#000000;stroke-width:0;stroke-linecap:butt;stroke-linejoin:miter;stroke-miterlimit:4;stroke-dasharray:none;stroke-opacity:1"
       d="m 125.62658,145.84981 -0.45109,-1.36529 c -0.0524,-0.31015 0.41499,-0.75201 0.6835,-0.30531 l 0.45937,1.38176 c 0.15486,0.86657 -0.51294,0.73183 -0.69178,0.28884 z"
       id="path3740-3-1"
       inkscape:connector-curvature="0"
       sodipodi:nodetypes="ccccc" />
    <path
       style="fill:#b5dfce;fill-opacity:1;stroke:#000000;stroke-width:0;stroke-linecap:butt;stroke-linejoin:miter;stroke-miterlimit:4;stroke-dasharray:none;stroke-opacity:1"
       d="m 116.97424,168.01294 -1.59213,-0.76612 c -0.33461,-0.21033 -0.51764,-0.90344 0.0688,-0.74052 l 1.61286,0.7733 c 0.93936,0.58166 0.44467,0.95835 -0.0895,0.73334 z"
       id="path3740-3-27"
       inkscape:connector-curvature="0"
       sodipodi:nodetypes="ccccc" />
    <path
       style="fill:#b5dfce;fill-opacity:1;stroke:#000000;stroke-width:0;stroke-linecap:butt;stroke-linejoin:miter;stroke-miterlimit:4;stroke-dasharray:none;stroke-opacity:1"
       d="m 110.34133,166.60172 -1.27801,-0.83265 c -0.26698,-0.22468 -0.39399,-0.93002 0.0807,-0.74351 l 1.29476,0.8407 c 0.74976,0.62189 0.33245,0.98257 -0.0974,0.73546 z"
       id="path3740-3-0"
       inkscape:connector-curvature="0"
       sodipodi:nodetypes="ccccc" />
    <path
       style="fill:#b5dfce;fill-opacity:1;stroke:#000000;stroke-width:0;stroke-linecap:butt;stroke-linejoin:miter;stroke-miterlimit:4;stroke-dasharray:none;stroke-opacity:1"
       d="m 116.84408,156.05351 -0.51891,-0.5246 c -0.097,-0.1265 0.23314,-0.54552 0.45373,-0.39158 l 0.40825,0.5128 c 0.27445,0.35221 -0.16112,0.56884 -0.34307,0.40338 z"
       id="path3740-3-93"
       inkscape:connector-curvature="0"
       sodipodi:nodetypes="ccccc" />
    <path
       style="fill:#b5dfce;fill-opacity:1;stroke:#000000;stroke-width:0;stroke-linecap:butt;stroke-linejoin:miter;stroke-miterlimit:4;stroke-dasharray:none;stroke-opacity:1"
       d="m 116.38076,152.3363 -1.00771,-1.41993 c -0.18838,-0.34238 -0.0169,-1.04493 0.41092,-0.62824 l 1.02217,1.43594 c 0.53297,0.95332 -0.0721,1.0601 -0.42538,0.61223 z"
       id="path3740-3-6"
       inkscape:connector-curvature="0"
       sodipodi:nodetypes="ccccc" />
    <path
       style="fill:#b5dfce;fill-opacity:1;stroke:#000000;stroke-width:0;stroke-linecap:butt;stroke-linejoin:miter;stroke-miterlimit:4;stroke-dasharray:none;stroke-opacity:1"
       d="m 112.05281,154.33619 -1.36735,-0.65986 c -0.2846,-0.17645 -0.20725,-0.7742 0.30309,-0.62252 l 1.31015,0.64962 c 0.79943,0.48862 0.21468,0.82963 -0.24589,0.63276 z"
       id="path3740-3-06"
       inkscape:connector-curvature="0"
       sodipodi:nodetypes="ccccc" />
    <path
       style="fill:#b5dfce;fill-opacity:1;stroke:#000000;stroke-width:0;stroke-linecap:butt;stroke-linejoin:miter;stroke-miterlimit:4;stroke-dasharray:none;stroke-opacity:1"
       d="m 104.89551,151.0354 -1.75586,-0.99201 c -0.30942,-0.36398 -0.35289,-0.88119 0.26235,-0.48654 l 1.68214,1.02261 c 0.2899,0.17903 0.29334,0.69486 -0.18863,0.45594 z"
       id="path3740-3-26"
       inkscape:connector-curvature="0"
       sodipodi:nodetypes="ccccc" />
    <path
       style="fill:#b5dfce;fill-opacity:1;stroke:#000000;stroke-width:0;stroke-linecap:butt;stroke-linejoin:miter;stroke-miterlimit:4;stroke-dasharray:none;stroke-opacity:1"
       d="m 111.62781,144.70104 -0.88712,-1.36143 c -0.16584,-0.32828 -0.0149,-1.00188 0.36175,-0.60236 l 0.89984,1.37678 c 0.4692,0.91405 -0.0634,1.01643 -0.37447,0.58701 z"
       id="path3740-3-18"
       inkscape:connector-curvature="0"
       sodipodi:nodetypes="ccccc" />
    <path
       style="fill:#b5dfce;fill-opacity:1;stroke:#000000;stroke-width:0;stroke-linecap:butt;stroke-linejoin:miter;stroke-miterlimit:4;stroke-dasharray:none;stroke-opacity:1"
       d="m 97.723075,147.22907 -1.840931,-1.07037 c -0.382877,-0.2857 -0.544937,-1.15411 0.14288,-0.90679 l 1.865138,1.08087 c 1.075524,0.79124 0.45318,1.21597 -0.167087,0.89629 z"
       id="path3740-3-79"
       inkscape:connector-curvature="0"
       sodipodi:nodetypes="ccccc" />
    <path
       style="fill:#b5dfce;fill-opacity:1;stroke:#000000;stroke-width:0;stroke-linecap:butt;stroke-linejoin:miter;stroke-miterlimit:4;stroke-dasharray:none;stroke-opacity:1"
       d="m 103.6943,131.20177 -1.07311,-1.83934 c -0.19206,-0.43742 0.0955,-1.27272 0.5717,-0.71823 l 1.08899,1.86042 c 0.54509,1.21889 -0.20579,1.28126 -0.58758,0.69715 z"
       id="path3740-3-20"
       inkscape:connector-curvature="0"
       sodipodi:nodetypes="ccccc" />
    <path
       style="fill:#b5dfce;fill-opacity:1;stroke:#000000;stroke-width:0;stroke-linecap:butt;stroke-linejoin:miter;stroke-miterlimit:4;stroke-dasharray:none;stroke-opacity:1"
       d="m 98.669189,125.90142 -1.244094,-0.98572 c -0.249747,-0.24892 -0.248907,-0.87451 0.23768,-0.61243 l 1.260964,0.9962 c 0.703194,0.69135 0.170467,0.90556 -0.25455,0.60195 z"
       id="path3740-3-75"
       inkscape:connector-curvature="0"
       sodipodi:nodetypes="ccccc" />
    <path
       style="fill:#b5dfce;fill-opacity:1;stroke:#000000;stroke-width:0;stroke-linecap:butt;stroke-linejoin:miter;stroke-miterlimit:4;stroke-dasharray:none;stroke-opacity:1"
       d="m 99.544533,120.97657 -0.864804,-1.79254 c -0.14999,-0.42329 0.1405,-1.20052 0.535887,-0.65287 l 0.877874,1.81326 c 0.42669,1.17999 -0.238157,1.20335 -0.548957,0.63215 z"
       id="path3740-3-92"
       inkscape:connector-curvature="0"
       sodipodi:nodetypes="ccccc" />
    <path
       style="fill:#b5dfce;fill-opacity:1;stroke:#000000;stroke-width:0;stroke-linecap:butt;stroke-linejoin:miter;stroke-miterlimit:4;stroke-dasharray:none;stroke-opacity:1"
       d="m 91.715858,121.69062 -1.448961,-1.0502 c -0.29087,-0.26521 -0.2899,-0.93173 0.276817,-0.6525 l 1.468614,1.06137 c 0.818994,0.73658 0.198537,0.9648 -0.29647,0.64133 z"
       id="path3740-3-75-9"
       inkscape:connector-curvature="0"
       sodipodi:nodetypes="ccccc" />
    <path
       style="fill:#b5dfce;fill-opacity:1;stroke:#000000;stroke-width:0;stroke-linecap:butt;stroke-linejoin:miter;stroke-miterlimit:4;stroke-dasharray:none;stroke-opacity:1"
       d="m 95.842074,112.60169 -0.945114,-1.27521 c -0.17647,-0.30529 -0.013,-0.90916 0.388697,-0.5296 l 0.958677,1.28972 c 0.499327,0.85037 -0.0708,0.91874 -0.40226,0.51509 z"
       id="path3740-3-75-7"
       inkscape:connector-curvature="0"
       sodipodi:nodetypes="ccccc" />
    <path
       style="fill:#b5dfce;fill-opacity:1;stroke:#000000;stroke-width:0;stroke-linecap:butt;stroke-linejoin:miter;stroke-miterlimit:4;stroke-dasharray:none;stroke-opacity:1"
       d="m 87.284755,93.636546 -0.944377,-1.275764 c -0.176287,-0.305382 -0.0125,-0.909155 0.38901,-0.529368 l 0.957924,1.290274 c 0.498827,0.850655 -0.0713,0.918698 -0.402557,0.514858 z"
       id="path3740-3-75-3"
       inkscape:connector-curvature="0"
       sodipodi:nodetypes="ccccc" />
    <path
       style="fill:#b5dfce;fill-opacity:1;stroke:#000000;stroke-width:0;stroke-linecap:butt;stroke-linejoin:miter;stroke-miterlimit:4;stroke-dasharray:none;stroke-opacity:1"
       d="m 90.812544,98.535019 -0.838377,-1.289326 c -0.151677,-0.305159 0.0528,-0.872793 0.42081,-0.48058 l 0.850674,1.304186 c 0.430197,0.850579 -0.1359,0.876105 -0.433107,0.46572 z"
       id="path3740-3-75-6"
       inkscape:connector-curvature="0"
       sodipodi:nodetypes="ccccc" />
    <path
       style="fill:#b5dfce;fill-opacity:1;stroke:#000000;stroke-width:0;stroke-linecap:butt;stroke-linejoin:miter;stroke-miterlimit:4;stroke-dasharray:none;stroke-opacity:1"
       d="m 94.640453,97.437961 0.633544,-1.25736 c 0.17521,-0.263217 0.764077,-0.394936 0.632447,0.07072 l -0.639427,1.2738 c -0.484367,0.7391 -0.811814,0.335387 -0.626564,-0.08715 z"
       id="path3740-3-75-1"
       inkscape:connector-curvature="0"
       sodipodi:nodetypes="ccccc" />
    <path
       style="fill:#b5dfce;fill-opacity:1;stroke:#000000;stroke-width:0;stroke-linecap:butt;stroke-linejoin:miter;stroke-miterlimit:4;stroke-dasharray:none;stroke-opacity:1"
       d="m 92.737612,106.08103 -0.556647,-1.12105 c -0.10081,-0.26541 0.0339,-0.75983 0.27801,-0.41898 l 0.564817,1.13397 c 0.285867,0.73976 -0.0889,0.76284 -0.28618,0.40606 z"
       id="path3740-3-75-2"
       inkscape:connector-curvature="0"
       sodipodi:nodetypes="ccccc" />
    <path
       style="fill:#b5dfce;fill-opacity:1;stroke:#000000;stroke-width:0;stroke-linecap:butt;stroke-linejoin:miter;stroke-miterlimit:4;stroke-dasharray:none;stroke-opacity:1"
       d="m 90.886844,144.2128 -0.888387,-0.58836 c -0.156547,-0.21588 -0.178547,-0.52264 0.13274,-0.28857 l 0.851077,0.60651 c 0.146677,0.10618 0.148417,0.41212 -0.0954,0.27042 z"
       id="path3740-3-26-9"
       inkscape:connector-curvature="0"
       sodipodi:nodetypes="ccccc" />
    <path
       style="fill:#b5dfce;fill-opacity:1;stroke:#000000;stroke-width:0;stroke-linecap:butt;stroke-linejoin:miter;stroke-miterlimit:4;stroke-dasharray:none;stroke-opacity:1"
       d="m 86.566158,142.54636 -1.657161,-0.86884 c -0.292027,-0.31879 0.0237,-0.80282 0.604337,-0.45717 l 1.242004,0.73013 c 0.273597,0.1568 0.265697,0.80514 -0.18918,0.59588 z"
       id="path3740-3-26-3"
       inkscape:connector-curvature="0"
       sodipodi:nodetypes="ccccc" />
    <path
       style="fill:#b5dfce;fill-opacity:1;stroke:#000000;stroke-width:0;stroke-linecap:butt;stroke-linejoin:miter;stroke-miterlimit:4;stroke-dasharray:none;stroke-opacity:1"
       d="m 108.7396,136.72515 -0.0828,-1.43549 c 0.0295,-0.31316 0.59528,-0.61918 0.73919,-0.11825 l 0.0866,1.45354 c -0.0744,0.87715 -0.68468,0.57436 -0.74293,0.1002 z"
       id="path3740-3-1-1"
       inkscape:connector-curvature="0"
       sodipodi:nodetypes="ccccc" />
    <path
       style="fill:#b5dfce;fill-opacity:1;stroke:#000000;stroke-width:0;stroke-linecap:butt;stroke-linejoin:miter;stroke-miterlimit:4;stroke-dasharray:none;stroke-opacity:1"
       d="m 106.76742,132.28354 0.0691,-0.67512 c 0.0412,-0.13946 0.37676,-0.18739 0.41587,0.0671 l -0.0685,0.68405 c -0.111,0.39195 -0.42234,0.15204 -0.41649,-0.0761 z"
       id="path3740-3-1-9"
       inkscape:connector-curvature="0"
       sodipodi:nodetypes="ccccc" />
    <path
       style="fill:#b5dfce;fill-opacity:1;stroke:#000000;stroke-width:0;stroke-linecap:butt;stroke-linejoin:miter;stroke-miterlimit:4;stroke-dasharray:none;stroke-opacity:1"
       d="m 109.00722,125.621 -0.0696,-1.23663 c 0.02,-0.2701 0.4362,-0.53773 0.54548,-0.10698 l 0.0725,1.25216 c -0.0498,0.75649 -0.50252,0.49973 -0.54835,0.0914 z"
       id="path3740-3-1-4"
       inkscape:connector-curvature="0"
       sodipodi:nodetypes="ccccc" />
    <path
       style="fill:#b5dfce;fill-opacity:1;stroke:#000000;stroke-width:0;stroke-linecap:butt;stroke-linejoin:miter;stroke-miterlimit:4;stroke-dasharray:none;stroke-opacity:1"
       d="m 107.34788,121.67092 -0.0354,-0.95506 c 0.0291,-0.20754 0.47232,-0.40114 0.57355,-0.0659 l 0.0379,0.96711 c -0.0749,0.58145 -0.54052,0.36984 -0.57608,0.0538 z"
       id="path3740-3-1-7"
       inkscape:connector-curvature="0"
       sodipodi:nodetypes="ccccc" />
    <path
       style="fill:#b5dfce;fill-opacity:1;stroke:#000000;stroke-width:0;stroke-linecap:butt;stroke-linejoin:miter;stroke-miterlimit:4;stroke-dasharray:none;stroke-opacity:1"
       d="m 107.51172,116.09988 0.15631,-1.76038 c 0.0611,-0.3941 0.4254,-0.89275 0.4361,-0.30277 l -0.15674,1.78194 c -0.16645,1.10211 -0.46978,0.85616 -0.43567,0.28121 z"
       id="path3740-3-1-8"
       inkscape:connector-curvature="0"
       sodipodi:nodetypes="ccccc" />
  </g>
</svg>
